<?xml version="1.0" standalone="no"?>
<!DOCTYPE svg PUBLIC "-//W3C//DTD SVG 20010904//EN"
 "http://www.w3.org/TR/2001/REC-SVG-20010904/DTD/svg10.dtd">
<svg version="1.0" xmlns="http://www.w3.org/2000/svg"
 width="1000.000000pt" height="1000.000000pt" viewBox="0 0 1000.000000 1000.000000"
 preserveAspectRatio="xMidYMid meet">

<g transform="translate(0.000000,1000.000000) scale(0.100000,-0.100000)"
fill="#000000" stroke="none">
<path d="M0 5000 l0 -5000 5000 0 5000 0 0 5000 0 5000 -5000 0 -5000 0 0
-5000z m2511 3325 c156 -59 152 -56 198 -123 22 -31 60 -70 85 -87 54 -36 59
-46 86 -172 l21 -98 -31 -74 c-22 -54 -30 -90 -30 -133 0 -78 -19 -116 -76
-152 -28 -17 -60 -51 -80 -83 -43 -66 -75 -83 -159 -83 -47 0 -82 -7 -125 -25
-84 -35 -116 -33 -181 14 -38 27 -70 41 -104 46 -80 12 -109 30 -135 85 -13
27 -47 72 -76 100 l-54 50 0 74 c0 40 -7 95 -15 122 -22 74 -19 110 14 158 20
28 32 62 37 97 8 66 23 91 74 125 22 14 53 48 70 74 35 54 63 70 128 70 26 0
67 10 92 21 46 22 92 36 122 38 9 1 72 -19 139 -44z m3132 -375 c80 -15 139
-20 258 -18 175 2 217 -9 329 -84 80 -53 107 -101 126 -220 8 -51 26 -136 40
-188 38 -138 20 -208 -72 -289 -50 -44 -80 -55 -189 -72 -84 -12 -145 -31
-247 -75 -74 -33 -80 -34 -212 -34 -129 0 -142 -2 -246 -36 -95 -30 -130 -36
-258 -44 -99 -6 -179 -17 -248 -34 -107 -27 -156 -31 -329 -26 -98 2 -123 -1
-227 -29 -134 -36 -172 -37 -321 -15 -89 14 -128 15 -215 7 -86 -8 -118 -8
-162 4 -102 26 -218 123 -239 200 -15 54 -41 266 -41 337 0 79 25 128 103 203
73 71 111 91 232 128 50 15 147 49 217 76 113 44 141 50 275 64 81 9 213 31
293 50 185 43 281 55 451 55 101 0 170 6 270 25 74 13 145 26 159 28 62 10
157 5 253 -13z m537 -997 c162 -183 290 -445 347 -713 28 -130 25 -481 -4
-605 -44 -186 -125 -361 -229 -497 -32 -41 -53 -58 -76 -63 -18 -4 -134 -40
-258 -80 -399 -130 -560 -163 -833 -172 l-178 -6 -42 40 c-64 62 -92 73 -299
118 -144 31 -194 31 -260 3 l-50 -21 -187 47 c-147 38 -201 47 -248 45 -43 -3
-65 0 -78 11 -38 31 -134 171 -182 266 -108 210 -149 409 -140 674 8 243 53
423 157 630 49 97 53 102 78 96 15 -3 74 0 132 6 87 9 122 8 208 -6 145 -23
203 -20 336 14 109 29 127 30 284 29 153 -2 176 1 272 25 76 20 146 30 252 36
127 7 161 13 257 44 105 34 117 36 244 35 124 -1 139 1 198 26 224 95 230 95
299 18z m-2380 -2564 c69 -31 161 -69 205 -85 44 -15 81 -28 82 -28 1 -1 -23
-116 -53 -256 -114 -535 -196 -965 -224 -1175 l-29 -217 -45 -79 c-51 -88 -56
-114 -24 -125 18 -5 30 3 70 47 53 61 58 58 26 -18 -15 -37 -19 -56 -12 -63
18 -18 59 5 84 45 12 20 24 35 26 33 2 -2 -4 -27 -12 -56 -18 -62 -14 -82 20
-82 19 0 33 15 67 68 30 48 44 62 47 49 2 -10 -1 -32 -7 -49 -16 -44 -14 -88
4 -94 23 -9 45 15 73 78 36 83 56 79 47 -10 -5 -55 -4 -71 9 -81 11 -9 20 -10
35 -1 21 11 24 18 38 98 9 49 27 57 31 15 5 -54 33 -113 52 -113 31 0 49 36
39 78 -16 71 -9 77 21 18 38 -74 48 -86 71 -86 36 0 43 40 19 100 -41 101 -41
101 -5 214 36 111 64 230 170 721 36 165 95 419 131 565 l64 265 153 -3 c258
-6 645 25 874 69 225 43 532 143 601 195 l32 25 48 -41 c26 -23 82 -80 125
-128 366 -406 559 -886 574 -1428 8 -264 -20 -474 -93 -693 -239 -716 -924
-1187 -1848 -1272 -249 -23 -647 -2 -886 46 -609 124 -1112 453 -1371 897
-325 556 -332 1304 -18 1937 123 249 262 437 473 638 l117 112 37 -37 c25 -24
79 -56 162 -93z"/>
<path d="M4380 6684 c-85 -37 -142 -124 -143 -219 -1 -132 100 -237 231 -237
170 -1 279 149 230 316 -16 54 -93 131 -144 145 -55 15 -133 13 -174 -5z m261
-153 c16 -16 29 -36 29 -45 0 -58 -63 -101 -109 -75 -39 22 -55 62 -39 96 13
27 50 53 76 53 8 0 27 -13 43 -29z"/>
<path d="M5434 6676 c-116 -54 -165 -194 -110 -311 41 -89 118 -137 219 -137
111 0 203 75 228 185 43 194 -154 348 -337 263z m279 -148 c27 -32 22 -82 -10
-108 -50 -39 -123 -4 -123 59 0 70 87 103 133 49z"/>
<path d="M4935 6112 c-16 -10 -38 -28 -47 -38 -46 -52 -62 -158 -33 -226 19
-47 76 -95 122 -104 55 -10 456 3 623 21 257 27 467 72 477 102 14 42 -785
241 -1042 259 -58 4 -75 2 -100 -14z"/>
<path d="M4414 5440 c-58 -23 -70 -95 -25 -141 49 -48 114 -34 141 31 16 39
-1 85 -41 105 -31 17 -44 18 -75 5z"/>
<path d="M5511 5424 c-51 -43 -41 -119 18 -144 93 -38 167 80 90 144 -17 14
-41 26 -54 26 -13 0 -37 -12 -54 -26z"/>
<path d="M4582 5257 c-31 -33 -30 -90 3 -122 53 -54 145 -16 145 60 0 76 -97
116 -148 62z"/>
<path d="M5305 5255 c-54 -53 -16 -145 59 -145 78 0 118 90 65 146 -31 33 -91
33 -124 -1z"/>
<path d="M4829 5197 c-45 -34 -48 -112 -6 -142 26 -18 86 -19 108 -2 46 35 47
101 2 137 -29 22 -80 26 -104 7z"/>
<path d="M5065 5187 c-35 -30 -37 -88 -4 -123 52 -55 149 -16 149 61 0 75 -87
112 -145 62z"/>
<path d="M4950 3760 c-64 -11 -93 -24 -133 -60 -102 -89 -49 -204 113 -246
162 -41 338 54 316 172 -17 90 -164 156 -296 134z"/>
<path d="M4920 3157 c-167 -47 -207 -178 -80 -265 49 -33 106 -45 190 -40 128
7 215 70 215 155 0 56 -27 91 -98 127 -67 33 -158 43 -227 23z"/>
<path d="M4902 2555 c-58 -18 -111 -60 -129 -103 -42 -100 75 -202 232 -202
146 0 264 92 240 187 -11 44 -74 99 -135 117 -64 19 -149 20 -208 1z"/>
</g>
</svg>
