<?xml version="1.0" standalone="no"?>
<!DOCTYPE svg PUBLIC "-//W3C//DTD SVG 20010904//EN"
 "http://www.w3.org/TR/2001/REC-SVG-20010904/DTD/svg10.dtd">
<svg version="1.0" xmlns="http://www.w3.org/2000/svg"
 width="912.000000pt" height="1280.000000pt" viewBox="0 0 912.000000 1280.000000"
 preserveAspectRatio="xMidYMid meet">
<metadata>
Created by potrace 1.15, written by Peter Selinger 2001-2017
</metadata>
<g transform="translate(0.000000,1280.000000) scale(0.100000,-0.100000)"
fill="#000000" stroke="none">
<path d="M4850 12774 c-321 -94 -707 -236 -1037 -383 -60 -26 -313 -168 -563
-315 -250 -148 -456 -270 -458 -271 -2 -2 16 -76 39 -166 70 -276 125 -412
229 -567 72 -108 140 -173 205 -197 76 -28 81 -34 69 -105 -14 -85 -2 -111 69
-139 l56 -23 -26 -46 c-33 -62 -27 -119 23 -238 32 -77 38 -102 42 -188 5
-100 -7 -205 -35 -311 -18 -70 -161 -425 -177 -441 -6 -6 -90 -31 -186 -54
-226 -55 -557 -149 -689 -195 -180 -63 -281 -124 -281 -171 0 -27 23 -62 49
-74 71 -34 439 -20 904 35 114 14 212 25 216 25 5 0 8 -125 7 -277 -1 -230 2
-294 17 -368 49 -251 150 -452 313 -624 35 -38 64 -71 64 -73 0 -3 -27 -24
-59 -47 -73 -51 -197 -174 -260 -259 -136 -182 -235 -410 -284 -659 -12 -62
-26 -113 -32 -113 -10 0 -81 22 -485 154 -130 42 -240 76 -245 76 -6 0 -121
-41 -256 -91 l-246 -91 -219 29 -219 29 -10 197 -10 197 -249 325 -249 324
-84 -76 c-84 -76 -84 -76 -64 -97 10 -12 120 -137 243 -278 256 -293 238 -256
238 -470 0 -80 -3 -108 -12 -108 -7 0 -134 23 -283 50 l-270 49 -65 68 c-35
37 -152 157 -258 266 l-193 198 -63 -58 -63 -58 55 -60 c31 -33 156 -164 280
-291 l224 -231 292 -48 c160 -27 293 -50 295 -51 4 -4 -154 -260 -173 -282 -7
-6 -135 -50 -285 -97 -150 -46 -275 -85 -277 -87 -2 -3 65 -125 102 -185 l14
-22 83 35 c45 19 163 69 262 111 l180 75 148 204 c129 177 152 204 175 204 15
0 125 -11 245 -25 l218 -25 250 77 250 76 147 -58 c81 -31 237 -93 348 -136
l200 -79 0 -267 c0 -293 8 -368 64 -581 36 -135 73 -231 146 -376 30 -60 53
-109 52 -110 -388 -235 -739 -574 -963 -931 -82 -130 -198 -372 -245 -510 -70
-205 -102 -350 -125 -560 -19 -173 -19 -233 5 -443 126 -1117 479 -1744 1182
-2103 605 -308 1454 -429 2568 -366 1041 60 1521 142 1909 328 395 189 640
473 861 998 111 264 340 1020 340 1122 0 24 -9 98 -20 164 -145 883 -789 1770
-1667 2299 -35 21 -63 40 -63 43 0 3 13 48 30 101 49 161 64 266 64 472 1 102
-5 232 -11 290 -7 58 -17 164 -23 235 -9 110 -42 305 -65 380 -6 19 44 42 542
259 301 131 553 243 559 250 6 6 81 218 168 470 86 253 158 461 161 464 2 2
115 25 251 51 l248 47 58 214 59 214 -78 78 c-72 72 -78 77 -84 56 -4 -13 -22
-113 -39 -224 l-32 -200 -166 -27 c-91 -15 -168 -25 -170 -22 -3 2 14 93 36
202 23 109 49 236 58 283 l18 85 -93 245 c-51 135 -95 247 -98 250 -3 3 -29
-21 -58 -53 l-52 -59 75 -199 76 -200 -64 -267 c-35 -147 -66 -274 -69 -283
-5 -13 -32 -3 -156 57 l-150 72 -89 223 c-49 123 -90 225 -91 226 -3 5 -205
-82 -205 -88 0 -3 65 -109 144 -235 l143 -229 181 -95 c99 -52 183 -98 187
-102 4 -3 -64 -195 -151 -427 l-157 -420 -515 -206 c-283 -113 -515 -205 -516
-203 -1 2 -28 56 -60 120 -105 214 -237 391 -422 566 -86 82 -232 198 -293
232 -11 6 -3 21 36 69 27 34 67 95 89 137 l39 75 70 -6 c165 -15 517 -58 706
-86 412 -61 423 -61 484 -8 55 49 75 141 38 181 -61 68 -239 112 -693 173
-305 41 -361 50 -450 71 l-65 15 -1 167 c0 154 -2 174 -28 257 -105 341 -215
576 -352 758 -24 31 -44 59 -44 61 0 1 26 8 58 15 288 62 881 222 1047 283
201 74 265 117 265 179 0 63 -52 79 -265 79 -213 0 -638 -40 -1065 -100 -74
-10 -136 -18 -136 -17 -8 8 -153 718 -189 922 -26 141 -55 281 -66 310 -31 82
-74 134 -130 158 l-49 21 2 52 c3 61 -12 88 -67 118 -62 35 -63 44 -22 131 20
42 37 92 37 110 0 69 -97 322 -210 544 -67 133 -279 499 -312 538 -13 16 -5
17 -108 -13z"/>
</g>
</svg>
